<?xml version="1.0" encoding="utf-8" ?>
<svg xmlns="http://www.w3.org/2000/svg" xmlns:xlink="http://www.w3.org/1999/xlink" viewBox="315 180 395 452" preserveAspectRatio="xMidYMid meet">
  <path fill="#151415" d="M388.655 369.746C408.191 368.841 429.862 369.948 449.645 369.536C460.435 369.311 473.435 369.388 484.189 370.044C487.125 370.223 488.856 372.776 490.375 375.036C490.526 378.991 490.357 383.311 490.281 387.297C501.24 386.914 512.281 387.428 523.254 387.159C526.64 387.076 530.373 386.935 533.709 387.41C533.742 382.204 532.434 374.899 536.865 371.021C538.753 370.14 543.452 369.645 545.416 369.638C570.949 369.553 596.464 369.595 621.995 369.552C626.453 369.544 631.119 369.368 635.535 369.844C638.163 370.127 639.835 372.334 641.266 374.271C641.467 378.204 641.303 382.92 641.265 386.914C653.785 387.814 653.097 394.866 652.568 405.581C652.027 416.517 656.7 432.362 641.448 431.732C641.36 435.149 641.477 438.609 641.549 442.029C647.697 441.808 654.597 441.817 660.754 441.881C671.809 442.152 681.93 440.28 691.712 446.636C708.159 457.324 706.129 472.661 706.124 489.548L706.114 531.559L706.163 574.409C706.174 586.694 707.922 600.732 701.088 611.374C696.674 618.188 689.75 622.986 681.819 624.726C674.527 626.251 638.817 625.684 629.451 624.627C625.544 624.187 620.696 621.356 617.397 619.105C604.042 608.555 604.767 597.713 604.78 582.205C582.497 581.595 557.805 582.15 535.361 582.183L419.968 582.06C420.123 595.225 420.41 605.635 410.947 616.097C399.41 628.852 380.894 624.891 365.324 625.502C352.528 626.004 337.931 626.54 328.211 616.902C319.374 608.141 318.934 598.639 318.83 586.782L318.764 508.063C318.755 495.476 318.465 481.046 319.225 468.568C319.544 463.328 323.695 454.611 327.639 450.97C338.738 440.724 349.063 441.85 362.745 441.951C369.262 441.991 375.778 441.984 382.295 441.929C381.737 437.79 381.648 436.057 381.703 431.874C368.553 428.635 373.681 416.646 372.653 405.21C371.834 396.087 372.129 388.07 382.918 386.79C382.552 379.902 380.728 372.27 388.655 369.746Z"/><path fill="#FAFAFA" d="M396.015 452.483L443.529 452.463L443.504 568.416C427.822 568.598 411.898 568.448 396.198 568.434C395.754 555.222 396.029 540.186 396.022 526.828L396.015 452.483Z"/><path fill="#FAFAFA" d="M580.639 452.502L627.543 452.552L627.943 568.439L580.793 568.448L580.639 452.502Z"/><path fill="#F7BD20" d="M543.39 400.748L569.444 400.691L569.362 437.918C540.325 437.704 511.287 437.65 482.25 437.758L455.61 437.843C455.443 425.655 455.569 413.157 455.552 400.944L543.39 400.748Z"/><path fill="#FAFAFA" d="M396.25 399.432C410.841 399.064 426.725 399.374 441.417 399.372L441.454 440.94L396.049 440.912C395.99 427.085 396.057 413.258 396.25 399.432Z"/><path fill="#FAFAFA" d="M455.353 452.423C460.504 452.237 465.797 452.358 470.961 452.405C470.808 490.637 471.558 530.457 470.737 568.491L455.061 568.52C454.71 530.086 455.165 490.902 455.353 452.423Z"/><path fill="#FAFAFA" d="M583.559 399.012L627.556 399.031L627.583 440.612L583.561 440.537C583.414 426.782 583.552 412.786 583.559 399.012Z"/><path fill="#FAFAFA" d="M553.974 452.504L568.942 452.503L569.031 568.558L554.2 568.501C553.607 555.741 553.998 539.954 553.992 526.99L553.974 452.504Z"/><path fill="#F7BD20" d="M641.841 566.716L697.386 566.814C697.419 570.731 697.706 579.405 697.148 582.908C695.83 583.673 694.017 583.419 692.396 583.402C687.047 583.407 639.328 583.985 636.959 582.493L637.213 581.769C638.883 581.716 639.758 581.817 641.299 581.136C642.313 579.188 641.883 569.522 641.841 566.716Z"/><path fill="#F7BD20" d="M328.513 566.734L381.952 566.805L381.993 581.824C383.998 581.879 385.507 582.014 387.502 582.237L387.93 582.796L386.878 583.268C367.431 582.962 347.266 583.344 327.769 583.459C327.719 580.12 327.068 568.949 328.513 566.734Z"/><path fill="#F7BD20" d="M686.655 526.254L697.327 526.24L697.296 542.322L652.25 542.389L641.804 542.413L641.797 526.327C656.648 526.466 671.782 526.285 686.655 526.254Z"/><path fill="#F7BD20" d="M641.704 486.41C660.185 486.27 678.668 486.258 697.15 486.376L697.252 502.182L641.682 502.229L641.704 486.41Z"/><path fill="#F7BD20" d="M641.683 506.207L697.283 506.141C697.415 511.329 697.342 516.729 697.345 521.934L641.697 522.202L641.683 506.207Z"/><path fill="#F7BD20" d="M641.726 546.512L697.401 546.512L697.402 562.207L641.794 562.19L641.726 546.512Z"/><path fill="#F7BD20" d="M327.881 526.472L381.957 526.43L381.97 542.404L327.914 542.431C327.797 537.256 327.884 531.673 327.881 526.472Z"/><path fill="#F7BD20" d="M360.307 486.242L382.001 486.116L382.023 502.078L349.875 502.152L327.849 502.195L327.875 486.484L360.307 486.242Z"/><path fill="#F7BD20" d="M360.382 506.245C367.591 506.213 374.799 506.231 382.007 506.301L382 522.015L350.25 522.041L327.867 522.075L327.871 506.405L360.382 506.245Z"/><path fill="#F7BD20" d="M327.856 546.521L381.987 546.535L381.98 562.078C364.189 562.088 345.575 561.836 327.852 562.343C327.782 557.13 327.85 551.748 327.856 546.521Z"/><path fill="#F7BD20" d="M639.41 587.528L697.37 587.547C697.607 592.885 697.435 596.229 696.775 601.489C694.498 602.062 681.4 601.869 677.968 601.867L639.495 601.937C639.583 597.134 639.554 592.33 639.41 587.528Z"/><path fill="#F7BD20" d="M327.847 587.446L385.672 587.499C385.204 592.885 384.944 595.931 384.971 601.418C383.063 601.847 370.831 601.712 368.263 601.713C354.854 601.763 341.445 601.721 328.037 601.588C327.772 596.975 327.851 592.087 327.847 587.446Z"/><path fill="#F7BD20" d="M642.066 468.731C659.515 468.245 679.245 468.638 696.843 468.661C696.999 472.868 696.967 477.367 697.014 481.6L641.929 481.702C641.894 477.455 641.766 472.946 642.066 468.731Z"/><path fill="#F7BD20" d="M327.904 468.588L382.049 468.508L382.031 481.56L327.908 481.554C327.849 477.272 327.903 472.881 327.904 468.588Z"/><path fill="#F7BD20" d="M641.98 450.197C654.282 450.11 668.51 449.371 680.735 450.915C687.859 451.814 692.957 457.721 696.035 463.954C691.002 464.273 682.995 464.018 677.678 464.024L641.93 464.069L641.98 450.197Z"/><path fill="#F7BD20" d="M377.809 450.242L382.1 450.32L382.131 463.971L334.071 464.109L328.862 464.045C337.121 449.27 346.111 450.242 361.046 450.288C366.634 450.305 372.221 450.29 377.809 450.242Z"/><path fill="#F7BD20" d="M648.288 606.24C663.593 606.054 678.899 606.029 694.204 606.163C689.588 613.393 685.961 616.24 677.413 617.267C662.124 617.578 645.756 617.213 630.409 617.039C634.478 613.106 636.021 611.33 638.743 606.389L648.288 606.24Z"/><path fill="#F7BD20" d="M330.489 606.21L385.452 606.073C388.091 611.199 390.087 612.905 394.137 616.997C380.728 617.996 357.452 617.586 343.676 616.547C338.775 616.178 333.277 610.548 330.489 606.21Z"/><path fill="#151415" d="M512.437 200.626C515.762 196.375 520.427 197.432 525.031 199.052C549.654 207.72 576.882 213.638 601.229 222.556C605.437 224.052 609.466 226.012 613.242 228.398C623.902 235.177 631.417 245.931 634.119 258.273C637.025 271.389 634.634 285.122 627.466 296.484C620.501 307.401 609.45 315.07 596.785 317.775C581.279 321.167 562.428 316.025 549.333 307.669C547.48 326.983 540.951 358.196 520.324 366.065C489.278 376.67 476.219 329.862 474.336 307.952C466.401 312.54 461.04 314.679 452.402 317.436C424.836 326.234 397.553 310.206 390.127 282.617C386.748 270.164 388.48 256.877 394.939 245.706C409.623 220.369 445.667 217.816 471.121 208.421C481.286 204.669 495.536 200.294 506.07 197.498C508.889 198.063 510.034 199.064 512.437 200.626Z"/><path fill="#FAFAFA" d="M522.616 209.529C526.566 210.502 534.57 212.662 538.161 214.046C557.184 221.378 597.698 227.781 612.448 240.874C619.913 247.437 624.389 256.754 624.847 266.683C625.394 278.336 621.462 288.762 613.593 297.286C594.511 316.334 562.627 308.517 545.278 290.895C522.595 267.856 522.581 239.611 522.616 209.529Z"/><path fill="#151415" d="M558.159 232.419C573.134 230.518 586.845 241.034 588.893 255.989C590.941 270.945 580.56 284.759 565.626 286.953C550.482 289.179 536.432 278.621 534.356 263.456C532.279 248.291 542.974 234.346 558.159 232.419Z"/><path fill="#FAFAFA" d="M560.811 245.37C562.847 244.748 565.06 245.293 566.575 246.788C568.09 248.283 568.664 250.489 568.069 252.533C567.474 254.577 565.806 256.13 563.725 256.578C560.689 257.233 557.676 255.377 556.895 252.371C556.113 249.365 557.841 246.277 560.811 245.37Z"/><path fill="#FAFAFA" d="M500.794 209.507C501.359 209.603 501 209.495 501.745 210.107C501.736 237.529 502.197 262.333 483.873 285.268C473.667 298.042 456.298 307.347 440.079 309.297C429.169 310.609 419.947 306.2 411.704 299.37C406.985 294.611 403.624 289.908 401.32 283.55C397.774 273.973 398.261 263.367 402.67 254.155C410.772 237.198 423.406 234.479 439.661 228.877C459.826 221.928 480.746 216.633 500.794 209.507Z"/><path fill="#151415" d="M460.637 232.45C475.681 231.067 489.027 242.067 490.544 257.097C492.061 272.128 481.181 285.572 466.164 287.222C450.958 288.894 437.305 277.846 435.769 262.625C434.233 247.404 445.403 233.85 460.637 232.45Z"/><path fill="#FAFAFA" d="M459.187 245.382C462.15 244.57 465.227 246.238 466.164 249.164C467.101 252.09 465.565 255.235 462.681 256.295C460.704 257.023 458.487 256.607 456.907 255.212C455.327 253.818 454.64 251.67 455.116 249.617C455.592 247.565 457.155 245.939 459.187 245.382Z"/><path fill="#F7BD20" d="M484.303 302.168C486.405 303.09 490.835 313.056 496.217 316.617C510.094 325.798 525.181 322.201 535.303 309.798C536.771 307.998 538.659 304.282 540.647 303.035C542.27 303.17 541.509 302.868 542.812 304.397C543.195 306.654 543.021 306.037 541.944 308.525C535.728 318.632 527.815 324.9 515.099 326.637C501.914 328.438 485.506 318.663 482.147 305.243C481.836 304 483.434 302.943 484.303 302.168Z"/><path fill="#F7BD20" d="M538.509 183.875C546.312 185.679 558.994 190.389 567.153 192.846C579.633 196.603 595.459 200.339 607.371 204.846C606.595 207.696 605.769 210.347 604.882 213.16C581.959 205.798 558.99 199.925 535.787 192.142C536.629 189.052 537.396 186.881 538.509 183.875Z"/><path fill="#F7BD20" d="M482.934 185.077L483.697 185.182C485.307 186.82 486.345 189.561 487.354 191.721C480.049 194.914 469.011 198.205 461.168 200.676C447.138 205.006 433.134 209.42 419.157 213.918C418.205 213.99 418.671 213.998 417.655 213.472C416.413 211.272 416.027 208.84 415.441 206.353C422.575 203.429 433.441 200.219 440.967 197.813C454.855 193.243 468.848 188.997 482.934 185.077Z"/></svg>